<svg xmlns="http://www.w3.org/2000/svg" viewBox="0 0 64 60" x="0px" y="0px">
    <g>
        <rect x="38" y="12" width="16" height="2"/>
        <rect x="38" y="16" width="16" height="2"/>
        <rect x="38" y="20" width="16" height="2"/>
        <path d="M61,5H58V3a1,1,0,0,0-1-1H35a1,1,0,0,0-1,1V5H30V3a1,1,0,0,0-1-1H7A1,1,0,0,0,6,3V5H3A1,1,0,0,0,2,6V43a1,1,0,0,0,1,1H35V42.62A4,4,0,0,0,36,40V4H48V9a.987.987,0,0,0,.62.92,1,1,0,0,0,1.09-.21L51,8.41l1.29,1.3A1.007,1.007,0,0,0,53,10a.838.838,0,0,0,.38-.08A.987.987,0,0,0,54,9V4h2V37h2V7h2V43h2V6A1,1,0,0,0,61,5ZM8,4H28V38H8ZM4,42V7H6V39a1,1,0,0,0,1,1H28a3.906,3.906,0,0,0,.56,2Zm30-2a2,2,0,0,1-4,0V7h4ZM52,6.59l-.29-.3a1.014,1.014,0,0,0-1.42,0l-.29.3V4h2Z"/>
        <rect x="38" y="24" width="16" height="2"/>
        <rect x="38" y="8" width="5" height="2"/>
        <path d="M21.307,14.336l-3.2-2.131A2,2,0,0,0,15,13.869v4.262A2,2,0,0,0,18.109,19.8l3.2-2.131a2,2,0,0,0,0-3.328ZM17,18.138V13.869L20.2,16Z"/>
        <path d="M18,8a8,8,0,1,0,8,8A8.009,8.009,0,0,0,18,8Zm0,14a6,6,0,1,1,6-6A6.006,6.006,0,0,1,18,22Z"/>
        <rect x="10" y="26" width="2" height="2"/>
        <rect x="14" y="26" width="2" height="2"/>
        <rect x="18" y="26" width="8" height="2"/>
        <rect x="10" y="30" width="16" height="2"/>
        <rect x="10" y="34" width="16" height="2"/>
        <path d="M56,39a2.942,2.942,0,0,0-1.47.4A2.983,2.983,0,0,0,52,38a2.942,2.942,0,0,0-1.47.4A2.957,2.957,0,0,0,47,37.18V31a3,3,0,0,0-6,0v8.18A2.98,2.98,0,0,0,37,42V53a1,1,0,0,0,.14.51L40,58.28V61a1,1,0,0,0,1,1H56a1,1,0,0,0,1-1V58.19l1.93-4.82A.937.937,0,0,0,59,53V42A3.009,3.009,0,0,0,56,39Zm1,13.81-1.93,4.82A.937.937,0,0,0,55,58v2H42V58a1,1,0,0,0-.14-.51L39,52.72V42a1,1,0,0,1,2,0v6h2V31a1,1,0,0,1,2,0V45h2V40a1,1,0,0,1,2,0v5h2V41a1,1,0,0,1,2,0v4h2V42a1,1,0,0,1,2,0Z"/>
    </g>
</svg>