<svg xmlns="http://www.w3.org/2000/svg" viewBox="0 -4 55 70" x="0px" y="0px">
    <title>form, document, write</title>
    <g>
        <path d="M60.5,28.87a1.52,1.52,0,0,1-.44,1.06l-8.71,8.7a1.45,1.45,0,0,1-1.06.44,1.47,1.47,0,0,1-1.06-.44,1.51,1.51,0,0,1,0-2.12l7.65-7.64L55.2,27.19,53.43,29,36.6,45.8l-5.91,1,1-5.91.43-.43,3.28,3.27a1.41,1.41,0,0,0,1.06.44,1.44,1.44,0,0,0,1.06-.44,1.51,1.51,0,0,0,0-2.12l-3.28-3.28L44.8,27.74l0,0,5.49-5.49L55.1,27l2.07-2.07,2.89,2.89A1.5,1.5,0,0,1,60.5,28.87Zm-1.94-5a2,2,0,0,0,0-2.82l-2.1-2.1a2,2,0,0,0-2.82,0L52.45,20.1,57.38,25Zm-21,24.84-8.45,1.41-.25,0a1.5,1.5,0,0,1-1.06-.44,1.52,1.52,0,0,1-.42-1.31l1.41-8.46a1.58,1.58,0,0,1,.42-.81l13-13V9a2,2,0,0,0-2-2H15.13V17.58a1.5,1.5,0,0,1-1.5,1.5H8a1.5,1.5,0,0,1,0-3h4.17V9.24L4.06,17.6A2,2,0,0,0,3.5,19V55a2,2,0,0,0,2,2H40.26a2,2,0,0,0,2-2V44.38l-3.88,3.88A1.56,1.56,0,0,1,37.56,48.67Z"/>
    </g>
</svg>