<svg
        xmlns="http://www.w3.org/2000/svg"
        version="1.1" x="0px" y="0px" viewBox="0 0 100 100">
    <g transform="translate(0,-952.36218)">
        <path style=""
              d="m 16.90625,957.36221 c -5.20766,0 -9.40625,4.68048 -9.40625,10.5 l 0,68.99999 c 0,5.8195 4.19859,10.5 9.40625,10.5 l 66.1875,0 c 2.90297,0 5.49709,-1.4533 7.21875,-3.75 l -74.40625,0 c -2.73419,0 -4.9375,-2.416 -4.9375,-5.4062 l 0,-7.9375 c 0,-2.9901 2.20331,-5.4063 4.9375,-5.4063 l 76.59375,0 0,-56.99999 c 0,-5.81952 -4.19859,-10.5 -9.40625,-10.5 l -66.1875,0 z M 50,967.76846 c 2.335367,0 4.21875,2.10618 4.21875,4.75 l 0,2.15625 c 1.055732,0.3106 2.083809,0.72751 3.03125,1.25 l 1.53125,-1.53125 c 0.934728,-0.93473 2.101288,-1.42881 3.25,-1.5 1.148711,-0.0712 2.268073,0.29931 3.09375,1.125 1.651353,1.65134 1.494456,4.50554 -0.375,6.375 l -1.5,1.5 c 0.522152,0.9479 0.908382,1.97514 1.21875,3.03125 l 2.15625,0 c 2.643809,0 4.78125,1.8834 4.78125,4.21875 0,2.33536 -2.137441,4.21875 -4.78125,4.21875 l -2.15625,0 c -0.311825,1.06078 -0.724465,2.07984 -1.25,3.03125 l 1.53125,1.5312 c 1.869456,1.8695 2.026353,4.69254 0.375,6.34384 -1.651354,1.6514 -4.474294,1.4945 -6.34375,-0.375 L 57.25,1002.3622 c -0.951913,0.5259 -1.969815,0.9694 -3.03125,1.2813 l 0,2.125 c 0,2.6438 -1.883383,4.7812 -4.21875,4.7812 -2.335366,0 -4.21875,-2.1374 -4.21875,-4.7812 l 0,-2.125 c -1.061704,-0.3119 -2.078936,-0.7554 -3.03125,-1.2813 l -1.53125,1.5313 c -1.869454,1.8695 -4.692398,2.0264 -6.34375,0.375 -1.651353,-1.6513 -1.494455,-4.47434 0.375,-6.34384 l 1.53125,-1.5312 c -0.525936,-0.95141 -0.937906,-1.97047 -1.25,-3.03125 l -2.15625,0 c -2.643809,0 -4.78125,-1.88339 -4.78125,-4.21875 0,-2.33535 2.137441,-4.21875 4.78125,-4.21875 l 2.15625,0 c 0.310636,-1.05611 0.6962,-2.08335 1.21875,-3.03125 l -1.5,-1.5 c -1.869455,-1.86946 -2.026353,-4.72366 -0.375,-6.375 0.722464,-0.72248 1.66076,-1.0908 2.65625,-1.125 1.279914,-0.044 2.635931,0.44843 3.6875,1.5 l 1.53125,1.53125 c 0.947839,-0.52249 1.97525,-0.9394 3.03125,-1.25 l 0,-2.15625 c 0,-2.64382 1.883384,-4.75 4.21875,-4.75 z m 0,12.53125 c -4.932656,0 -8.875,3.91106 -8.875,8.84375 0,4.93262 3.942344,8.875 8.875,8.875 4.932656,0 8.875,-3.94238 8.875,-8.875 0,-4.93269 -3.942344,-8.84375 -8.875,-8.84375 z"
              fill="#000000" fill-opacity="1" stroke="none"/>
    </g>
</svg>