<svg xmlns="http://www.w3.org/2000/svg" viewBox="0 0 100 100" x="0px" y="0px">
	<title>Money</title>
	<path d="M50,5A45,45,0,1,0,95,50,45.05077,45.05077,0,0,0,50,5Zm1.81641,40.36664c6.41113,2.46631,15.1914,5.84375,15.1914,15.69043,0,6.96631-5.37207,12.45215-13.00488,13.88635v7.03894h-8V74.94464c-7.636-1.43249-13.01074-6.91949-13.01074-13.88757h10c0,2.67041,3.56347,4.26611,7.00781,4.26611s7.00781-1.5957,7.00781-4.26611c0-2.54834-2.19238-3.82227-8.78125-6.35694C41.79688,52.227,32.99219,48.84027,32.99219,38.94769c0-6.96808,5.37475-12.45508,13.01074-13.88757v-7.0426h8v7.04382c7.63281,1.4342,13.00488,6.92,13.00488,13.88635h-10c0-2.67041-3.56347-4.26611-7.00781-4.26611s-7.00781,1.5957-7.00781,4.26611C42.99219,41.5351,45.19531,42.81976,51.81641,45.36664Z"/>
</svg>