<svg xmlns="http://www.w3.org/2000/svg"
     version="1.1" x="0px" y="0px" viewBox="0 0 100 100"
     style="enable-background:new 0 0 100 100;" xml:space="preserve">
        <g>
            <path d="M89.5,26.6H77.1l-2.2-12.5c-0.4-2.1-1.5-4-3.3-5.2c-1.8-1.2-3.9-1.7-6-1.3L9.2,17.5c-4.4,0.8-7.3,4.9-6.5,9.3l8.7,49.1    c0.4,2.1,1.6,3.9,3.3,5.2c1.4,1,2.9,1.5,4.6,1.5c0.5,0,1,0,1.4-0.1l3.5-0.6v2.7c0,4.4,3.6,8,8,8h57.3c4.4,0,8-3.6,8-8V34.7    C97.5,30.2,93.9,26.6,89.5,26.6z M84.9,43.8c0,2.8-2.2,5-5,5c-2.8,0-5-2.2-5-5c0-2.8,2.2-5,5-5C82.6,38.8,84.9,41.1,84.9,43.8z     M19.4,75.9c-0.5,0.1-0.9-0.1-1-0.2c-0.2-0.1-0.5-0.4-0.6-0.9L9.2,25.7c-0.1-0.8,0.4-1.5,1.1-1.6l56.4-10c0.1,0,0.2,0,0.2,0    c0.4,0,0.7,0.2,0.8,0.3c0.2,0.1,0.5,0.4,0.6,0.9l2,11.4H32.2c-4.4,0-8,3.6-8,8v40.4L19.4,75.9z M89.5,85.9H32.2    c-0.8,0-1.4-0.6-1.4-1.4V70.9l18.7-21.5c0.5-0.6,1.4-0.6,1.9,0L63,62.6c0.2,0.2,0.3,0.5,0.2,0.8l-1.5,6.8    c-0.1,0.5,0.5,0.8,0.8,0.4l11.6-12.7c0.4-0.4,1-0.4,1.3,0l15.4,16.9v9.7C90.8,85.3,90.2,85.9,89.5,85.9z"/>
        </g>
</svg>