<svg xmlns="http://www.w3.org/2000/svg" xmlns:xlink="http://www.w3.org/1999/xlink" version="1.1" x="0px" y="0px" viewBox="0 0 512 640" style="enable-background:new 0 0 512 512;" xml:space="preserve"><g><g><g><path d="M475,110H37c-8.284,0-15-6.716-15-15V37c0-8.284,6.716-15,15-15h438c8.284,0,15,6.716,15,15v58     C490,103.284,483.284,110,475,110z M52,80h408V52H52V80z"/><path d="M451,361H61c-8.284,0-15-6.716-15-15V95h30v236h360V95h30v251C466,354.284,459.284,361,451,361z"/></g><g><rect x="76.282" y="395.398" transform="matrix(0.5024 -0.8646 0.8646 0.5024 -279.7057 334.7664)" width="149.436" height="30"/><rect x="346" y="335.68" transform="matrix(0.8646 -0.5024 0.5024 0.8646 -157.3248 236.9421)" width="30" height="149.436"/></g><g><path d="M183.109,300.846c-44.579,0-80.846-36.268-80.846-80.846s36.268-80.846,80.846-80.846s80.846,36.268,80.846,80.846     S227.688,300.846,183.109,300.846z M183.109,169.154c-28.037,0-50.846,22.81-50.846,50.846s22.81,50.846,50.846,50.846     s50.846-22.81,50.846-50.846S211.146,169.154,183.109,169.154z"/><path d="M249,235h-66c-8.284,0-15-6.716-15-15v-66h30v51h51V235z"/></g><g><rect x="304" y="145" width="104" height="30"/><rect x="304" y="205" width="104" height="30"/><rect x="304" y="265" width="104" height="30"/></g></g></g><text x="0" y="527" fill="#000000" font-size="5px" font-weight="bold" font-family="'Helvetica Neue', Helvetica, Arial-Unicode, Arial, Sans-serif">Created by SBTS</text><text x="0" y="532" fill="#000000" font-size="5px" font-weight="bold" font-family="'Helvetica Neue', Helvetica, Arial-Unicode, Arial, Sans-serif">from the Noun Project</text></svg>