<svg xmlns="http://www.w3.org/2000/svg" xmlns:xlink="http://www.w3.org/1999/xlink" version="1.1" x="0px" y="0px" viewBox="0 0 100 125" enable-background="new 0 0 100 100" xml:space="preserve"><g><g><path d="M85.4,63.1c0,2.6-1.1,4.8-2.8,6.6c0,0,0,0.1-0.1,0.1c-0.3,8.6-7.3,15.5-16,15.5c-4.8,0-9.1-2.1-12-5.4    c-7.9,0.7-16.8-0.7-20.8-4.7c-0.4-0.4-0.7-0.8-1.1-1.2c-5.2-0.3-10.1-1.7-12.7-4.3c-1.8-1.8-2.8-4-2.8-6.6c0-5.4,1.8-11.4,4.8-16    c1.5-2.3,3.2-4.1,5.1-5.5c0.3-0.3,0.4-0.7,0.5-1.1c0.1-0.6-0.1-1.3-0.5-1.8c-1.8-2-3-4.7-3-7.7c0-6.3,5.1-11.4,11.4-11.4    c2.9,0,5.5,1.1,7.5,2.9c2.2-1.8,4.9-2.8,7.9-2.8c3.2,0,6.1,1.2,8.3,3.1c2-2,4.8-3.2,7.9-3.2c6.3,0,11.4,5.1,11.4,11.4    c0,2.9-1.1,5.6-3,7.7c-0.4,0.6-0.5,1.2-0.5,1.8c0.1,0.4,0.2,0.8,0.5,1.1c1.9,1.4,3.6,3.2,5.1,5.5C83.6,51.7,85.4,57.7,85.4,63.1z     M81.7,64.2c0.1-0.3,0.1-0.7,0.1-1.1c0-12.8-8.6-20.7-14.7-20.7c-1.9,0-4.1,0.8-6.2,2.2c1.8,1.4,3.4,3.3,4.9,5.5    c0.7,1,1.3,2,1.8,3.2C74.2,53.7,79.7,58.2,81.7,64.2z M73.4,35.5c0.9-1.3,1.4-2.8,1.4-4.5c0-4.3-3.5-7.8-7.8-7.8    c-2.2,0-4.1,0.9-5.5,2.3c1.2,2,1.9,4.3,1.9,6.7c0,1.8-0.4,3.4-1,5c1.3,1,2.9,1.5,4.6,1.5c2.2,0,4.2-0.9,5.6-2.4    C72.9,36.1,73.2,35.8,73.4,35.5z M70.8,72.8c1.6-1.6,3.6-3.9,2.2-6.2c-1.3-2.2-4.7-2.2-6.1-0.2c-1.4-2-4.8-2-6.1,0.2    c-1.4,2.4,0.6,4.6,2.2,6.2c0.9,0.9,3.3,3,3.9,3.4C67.4,75.7,69.9,73.6,70.8,72.8z M62.1,53.9c0.4-0.1,0.9-0.2,1.3-0.3    c-1.6-2.6-3.5-4.7-5.6-6.1c-1-0.8-2.1-1.4-3.2-1.8c-1.3-0.5-2.5-0.8-3.7-0.8c-1,0-2.1,0.2-3.2,0.6c-1.1,0.4-2.2,0.9-3.3,1.7    c-5.1,3.4-9.8,10.7-9.8,20.7c0,0.9,0.2,1.7,0.5,2.4c0.3,0.8,0.8,1.4,1.4,2c0.7,0.6,1.6,1.2,2.7,1.6c3.2,1.4,8.1,2,12.8,1.9    c-0.9-2-1.4-4.2-1.4-6.5C50.5,62,55.4,55.8,62.1,53.9z M59.3,32c0-4.7-3.8-8.5-8.5-8.5c-4.7,0-8.5,3.8-8.5,8.5s3.8,8.5,8.5,8.5    C55.5,40.5,59.3,36.7,59.3,32z M38.3,32.3c0-2.7,0.8-5.1,2.2-7.1c-1.4-1.2-3.1-1.9-5.1-1.9c-4.3,0-7.8,3.5-7.8,7.8    c0,1.7,0.5,3.2,1.5,4.5c0.3,0.3,0.5,0.6,0.7,0.9c1.4,1.5,3.4,2.4,5.6,2.4c1.5,0,2.9-0.4,4-1.2C38.8,36,38.3,34.2,38.3,32.3z     M36,50.1c1.5-2.4,3.3-4.3,5.3-5.8c-1.9-1.3-4-2-5.8-2c-6.1,0-14.7,7.9-14.7,20.7c0,1.6,0.5,2.9,1.7,4c1.6,1.5,4.8,2.5,8.4,2.9    c-0.2-0.7-0.2-1.4-0.2-2.2C30.6,61.8,32.6,55.2,36,50.1z"/></g></g><text x="0" y="115" fill="#000000" font-size="5px" font-weight="bold" font-family="'Helvetica Neue', Helvetica, Arial-Unicode, Arial, Sans-serif">Created by MRFA</text><text x="0" y="120" fill="#000000" font-size="5px" font-weight="bold" font-family="'Helvetica Neue', Helvetica, Arial-Unicode, Arial, Sans-serif">from the Noun Project</text></svg>