<svg xmlns="http://www.w3.org/2000/svg" viewBox="0 0 64 64" x="0px" y="0px">
	<g>
		<rect x="6" y="12" width="2" height="2"/>
		<rect x="10" y="12" width="2" height="2"/>
		<rect x="14" y="12" width="2" height="2"/>
		<path d="M59,2H11A3,3,0,0,0,8,5V8H5a3,3,0,0,0-3,3V59a3,3,0,0,0,3,3H53a3,3,0,0,0,3-3V56h3a3,3,0,0,0,3-3V5A3,3,0,0,0,59,2ZM10,5a1,1,0,0,1,1-1H59a1,1,0,0,1,1,1v5H55.816A3,3,0,0,0,53,8H10ZM5,10H53a1,1,0,0,1,1,1v5H4V11A1,1,0,0,1,5,10ZM53,60H5a1,1,0,0,1-1-1V18H54V59A1,1,0,0,1,53,60Zm6-6H56V12h4V53A1,1,0,0,1,59,54Z"/>
		<rect x="20" y="12" width="26" height="2"/>
		<path d="M17.293,36.293l-3,3a1,1,0,0,0,0,1.414l3,3,1.414-1.414L16.414,40l2.293-2.293Z"/>
		<path d="M33.707,39.293l-3-3-1.414,1.414L31.586,40l-2.293,2.293,1.414,1.414,3-3A1,1,0,0,0,33.707,39.293Z"/>
		<rect x="18.615" y="39" width="10.77" height="2" transform="translate(-22.05 47.445) rotate(-68.219)"/>
		<path d="M41.142,36.01l-3.907-.558a13.905,13.905,0,0,0-.657-1.6L38.942,30.7a1,1,0,0,0-.092-1.306L34.606,25.15a1,1,0,0,0-1.306-.092l-3.154,2.364a13.905,13.905,0,0,0-1.6-.657l-.558-3.907A1,1,0,0,0,27,22H21a1,1,0,0,0-.99.858l-.558,3.907a13.905,13.905,0,0,0-1.6.657L14.7,25.058a.993.993,0,0,0-1.306.092L9.15,29.394A1,1,0,0,0,9.058,30.7l2.364,3.154a13.905,13.905,0,0,0-.657,1.6l-3.907.558A1,1,0,0,0,6,37v6a1,1,0,0,0,.858.99l3.907.558a13.921,13.921,0,0,0,.657,1.6L9.058,49.3a1,1,0,0,0,.092,1.306l4.244,4.244a1,1,0,0,0,1.306.092l3.153-2.364a13.921,13.921,0,0,0,1.6.657l.558,3.907A1,1,0,0,0,21,58h6a1,1,0,0,0,.99-.858l.558-3.907a13.921,13.921,0,0,0,1.6-.657L33.3,54.942a1,1,0,0,0,1.306-.092l4.244-4.244a1,1,0,0,0,.092-1.306l-2.364-3.153a13.921,13.921,0,0,0,.657-1.6l3.907-.558A1,1,0,0,0,42,43V37A1,1,0,0,0,41.142,36.01ZM40,42.133l-3.67.523a1,1,0,0,0-.818.71,11.9,11.9,0,0,1-.987,2.4,1,1,0,0,0,.077,1.081l2.22,2.961-3.016,3.016L30.845,50.6a1,1,0,0,0-1.081-.077,11.9,11.9,0,0,1-2.4.987,1,1,0,0,0-.71.818L26.133,56H21.867l-.523-3.67a1,1,0,0,0-.71-.818,11.9,11.9,0,0,1-2.4-.987,1,1,0,0,0-1.081.077l-2.961,2.22-3.016-3.016,2.22-2.961a1,1,0,0,0,.077-1.081,11.9,11.9,0,0,1-.987-2.4,1,1,0,0,0-.818-.71L8,42.133V37.867l3.67-.523a1,1,0,0,0,.818-.71,11.825,11.825,0,0,1,.988-2.4,1,1,0,0,0-.078-1.081l-2.22-2.961,3.016-3.016,2.961,2.22a1,1,0,0,0,1.081.078,11.825,11.825,0,0,1,2.4-.988,1,1,0,0,0,.71-.818L21.867,24h4.266l.523,3.67a1,1,0,0,0,.71.818,11.825,11.825,0,0,1,2.4.988,1,1,0,0,0,1.081-.078l2.961-2.22,3.016,3.016L34.6,33.155a1,1,0,0,0-.078,1.081,11.825,11.825,0,0,1,.988,2.4,1,1,0,0,0,.818.71l3.67.523Z"/>
		<rect x="23" y="26" width="2" height="2"/>
		<rect x="13.808" y="29.808" width="2" height="2" transform="translate(-17.447 19.494) rotate(-45)"/>
		<rect x="10" y="39" width="2" height="2"/>
		<rect x="13.808" y="48.192" width="2" height="2" transform="translate(-30.447 24.879) rotate(-45)"/>
		<rect x="23" y="52" width="2" height="2"/>
		<rect x="32.192" y="48.192" width="2" height="2" transform="translate(-25.062 37.879) rotate(-45)"/>
		<rect x="36" y="39" width="2" height="2"/>
		<rect x="32.192" y="29.808" width="2" height="2" transform="translate(-12.062 32.494) rotate(-45)"/>
		<path d="M49.167,24.247l1.49-1.49-1.414-1.414-1.49,1.49A4.961,4.961,0,0,0,46,22.1V20H44v2.1a4.961,4.961,0,0,0-1.753.732l-1.49-1.49-1.414,1.414,1.49,1.49A4.961,4.961,0,0,0,40.1,26H38v2h2.1a4.961,4.961,0,0,0,.732,1.753l-1.49,1.49,1.414,1.414,1.49-1.49A4.961,4.961,0,0,0,44,31.9V34h2V31.9a4.961,4.961,0,0,0,1.753-.732l1.49,1.49,1.414-1.414-1.49-1.49A4.961,4.961,0,0,0,49.9,28H52V26H49.9A4.961,4.961,0,0,0,49.167,24.247ZM45,30a3,3,0,1,1,3-3A3,3,0,0,1,45,30Z"/>
	</g>
</svg>